<svg width="26" height="22" viewBox="0 0 26 22" fill="none" xmlns="http://www.w3.org/2000/svg">
<path fill-rule="evenodd" clip-rule="evenodd" d="M5 0.5C5.82843 0.5 6.5 1.17157 6.5 2V9C6.5 9.82843 5.82843 10.5 5 10.5C4.17157 10.5 3.5 9.82843 3.5 9V2C3.5 1.17157 4.17157 0.5 5 0.5ZM6.5 14.5H8C8.82843 14.5 9.5 13.8284 9.5 13C9.5 12.1716 8.82843 11.5 8 11.5H5H2C1.17157 11.5 0.5 12.1716 0.5 13C0.5 13.8284 1.17157 14.5 2 14.5H3.5V20C3.5 20.8284 4.17157 21.5 5 21.5C5.82843 21.5 6.5 20.8284 6.5 20V14.5ZM14.5 11C14.5 10.1716 13.8284 9.5 13 9.5C12.1716 9.5 11.5 10.1716 11.5 11V20C11.5 20.8284 12.1716 21.5 13 21.5C13.8284 21.5 14.5 20.8284 14.5 20V11ZM13 0.5C13.8284 0.5 14.5 1.17157 14.5 2V5.5H16C16.8284 5.5 17.5 6.17157 17.5 7C17.5 7.82843 16.8284 8.5 16 8.5H13H10C9.17157 8.5 8.5 7.82843 8.5 7C8.5 6.17157 9.17157 5.5 10 5.5H11.5V2C11.5 1.17157 12.1716 0.5 13 0.5ZM21 13.5H24C24.8284 13.5 25.5 14.1716 25.5 15C25.5 15.8284 24.8284 16.5 24 16.5H22.5V20C22.5 20.8284 21.8284 21.5 21 21.5C20.1716 21.5 19.5 20.8284 19.5 20V16.5H18C17.1716 16.5 16.5 15.8284 16.5 15C16.5 14.1716 17.1716 13.5 18 13.5H21ZM21 0.5C21.8284 0.5 22.5 1.17157 22.5 2V11C22.5 11.8284 21.8284 12.5 21 12.5C20.1716 12.5 19.5 11.8284 19.5 11V2C19.5 1.17157 20.1716 0.5 21 0.5Z" fill="black"/>
</svg>
