<svg width="171" height="172" viewBox="0 0 171 172" fill="none" xmlns="http://www.w3.org/2000/svg">
<path fill-rule="evenodd" clip-rule="evenodd" d="M156.066 86C175.592 66.4738 175.592 34.8155 156.066 15.2893C136.54 -4.23689 104.882 -4.23689 85.3553 15.2893L14.6447 86C-4.88155 105.526 -4.88156 137.184 14.6447 156.711C34.1709 176.237 65.8291 176.237 85.3553 156.711L156.066 86ZM94.5477 42.8665C98.4529 46.7717 98.4529 53.1034 94.5477 57.0086L75.4558 76.1005L59.1924 92.364L42.5754 108.981C33.398 118.158 31.182 130.822 37.6256 137.265C37.7194 137.359 37.8145 137.451 37.9109 137.541C34.0534 136.396 30.4179 134.3 27.3726 131.255C17.6094 121.492 17.6095 105.663 27.3726 95.8995L45.0502 78.2218L61.3137 61.9584L80.4056 42.8665C84.3108 38.9613 90.6425 38.9613 94.5477 42.8665Z" fill="white"/>
</svg>
